<mxfile host="app.diagrams.net" modified="2024-05-15T01:05:36.624Z" agent="Mozilla/5.0 (Windows NT 10.0; Win64; x64) AppleWebKit/537.36 (KHTML, like Gecko) Chrome/124.0.0.0 Safari/537.36" etag="Y5UyM7t2u9qWXR6C-kc4" version="24.4.0" type="github">
  <diagram id="C5RBs43oDa-KdzZeNtuy" name="Page-1">
    <mxGraphModel dx="-1191" dy="583" grid="1" gridSize="10" guides="1" tooltips="1" connect="1" arrows="1" fold="1" page="1" pageScale="1" pageWidth="827" pageHeight="1169" math="0" shadow="0">
      <root>
        <mxCell id="WIyWlLk6GJQsqaUBKTNV-0" />
        <mxCell id="WIyWlLk6GJQsqaUBKTNV-1" parent="WIyWlLk6GJQsqaUBKTNV-0" />
        <mxCell id="_50P9RwX4HTJ3jGrq69S-0" value="" style="rounded=0;html=1;jettySize=auto;orthogonalLoop=1;fontSize=11;endArrow=block;endFill=0;endSize=8;strokeWidth=1;shadow=0;labelBackgroundColor=none;edgeStyle=orthogonalEdgeStyle;" edge="1" parent="WIyWlLk6GJQsqaUBKTNV-1" source="_50P9RwX4HTJ3jGrq69S-1" target="_50P9RwX4HTJ3jGrq69S-2">
          <mxGeometry relative="1" as="geometry" />
        </mxCell>
        <mxCell id="_50P9RwX4HTJ3jGrq69S-1" value="Inscrever Eventos&amp;nbsp;" style="rounded=1;whiteSpace=wrap;html=1;fontSize=12;glass=0;strokeWidth=1;shadow=0;" vertex="1" parent="WIyWlLk6GJQsqaUBKTNV-1">
          <mxGeometry x="2517.5" y="40" width="120" height="40" as="geometry" />
        </mxCell>
        <mxCell id="_50P9RwX4HTJ3jGrq69S-2" value="Verifica se Cliente esta inscrito no evento&amp;nbsp;" style="rhombus;whiteSpace=wrap;html=1;shadow=0;fontFamily=Helvetica;fontSize=12;align=center;strokeWidth=1;spacing=6;spacingTop=-4;" vertex="1" parent="WIyWlLk6GJQsqaUBKTNV-1">
          <mxGeometry x="2500" y="110" width="155" height="150" as="geometry" />
        </mxCell>
        <mxCell id="_50P9RwX4HTJ3jGrq69S-3" value="" style="edgeStyle=orthogonalEdgeStyle;rounded=0;html=1;jettySize=auto;orthogonalLoop=1;fontSize=11;endArrow=block;endFill=0;endSize=8;strokeWidth=1;shadow=0;labelBackgroundColor=none;entryX=0;entryY=0.5;entryDx=0;entryDy=0;" edge="1" parent="WIyWlLk6GJQsqaUBKTNV-1">
          <mxGeometry y="10" relative="1" as="geometry">
            <mxPoint as="offset" />
            <mxPoint x="2655" y="185" as="sourcePoint" />
            <mxPoint x="2805" y="100" as="targetPoint" />
            <Array as="points">
              <mxPoint x="2705" y="185" />
              <mxPoint x="2705" y="100" />
            </Array>
          </mxGeometry>
        </mxCell>
        <mxCell id="_50P9RwX4HTJ3jGrq69S-4" value="" style="edgeStyle=orthogonalEdgeStyle;rounded=0;html=1;jettySize=auto;orthogonalLoop=1;fontSize=11;endArrow=block;endFill=0;endSize=8;strokeWidth=1;shadow=0;labelBackgroundColor=none;entryX=0;entryY=0.5;entryDx=0;entryDy=0;" edge="1" parent="WIyWlLk6GJQsqaUBKTNV-1">
          <mxGeometry y="10" relative="1" as="geometry">
            <mxPoint as="offset" />
            <mxPoint x="2655" y="185" as="sourcePoint" />
            <mxPoint x="2805" y="270" as="targetPoint" />
            <Array as="points">
              <mxPoint x="2705" y="185" />
              <mxPoint x="2705" y="270" />
            </Array>
          </mxGeometry>
        </mxCell>
        <mxCell id="_50P9RwX4HTJ3jGrq69S-5" value="Retorna lista de eventos aonde o cliente esteja incsrito&amp;nbsp;&amp;nbsp;" style="rounded=1;whiteSpace=wrap;html=1;fontSize=12;glass=0;strokeWidth=1;shadow=0;" vertex="1" parent="WIyWlLk6GJQsqaUBKTNV-1">
          <mxGeometry x="2806" y="70" width="120" height="60" as="geometry" />
        </mxCell>
        <mxCell id="_50P9RwX4HTJ3jGrq69S-6" style="edgeStyle=orthogonalEdgeStyle;rounded=0;orthogonalLoop=1;jettySize=auto;html=1;entryX=0;entryY=0.5;entryDx=0;entryDy=0;" edge="1" parent="WIyWlLk6GJQsqaUBKTNV-1" source="_50P9RwX4HTJ3jGrq69S-7" target="_50P9RwX4HTJ3jGrq69S-8">
          <mxGeometry relative="1" as="geometry" />
        </mxCell>
        <mxCell id="_50P9RwX4HTJ3jGrq69S-7" value="Salva o ciente na tabela de eventos&amp;nbsp;" style="rounded=1;whiteSpace=wrap;html=1;fontSize=12;glass=0;strokeWidth=1;shadow=0;" vertex="1" parent="WIyWlLk6GJQsqaUBKTNV-1">
          <mxGeometry x="2806" y="240" width="120" height="60" as="geometry" />
        </mxCell>
        <mxCell id="_50P9RwX4HTJ3jGrq69S-8" value="Retorna mensagem de cliente inscrito em evento com sucesso" style="rounded=1;whiteSpace=wrap;html=1;fontSize=12;glass=0;strokeWidth=1;shadow=0;" vertex="1" parent="WIyWlLk6GJQsqaUBKTNV-1">
          <mxGeometry x="2990" y="240" width="120" height="60" as="geometry" />
        </mxCell>
        <mxCell id="_50P9RwX4HTJ3jGrq69S-9" value="Sim" style="text;html=1;align=center;verticalAlign=middle;resizable=0;points=[];autosize=1;strokeColor=none;fillColor=none;" vertex="1" parent="WIyWlLk6GJQsqaUBKTNV-1">
          <mxGeometry x="2705" y="70" width="40" height="30" as="geometry" />
        </mxCell>
        <mxCell id="_50P9RwX4HTJ3jGrq69S-10" value="NÃ£o" style="text;html=1;align=center;verticalAlign=middle;resizable=0;points=[];autosize=1;strokeColor=none;fillColor=none;" vertex="1" parent="WIyWlLk6GJQsqaUBKTNV-1">
          <mxGeometry x="2700" y="270" width="50" height="30" as="geometry" />
        </mxCell>
      </root>
    </mxGraphModel>
  </diagram>
</mxfile>
